<svg width="50" height="33" viewBox="0 0 50 33" fill="none" xmlns="http://www.w3.org/2000/svg">
<path d="M20.9821 0C11.3095 2.08334 0 9.52382 0 20.3869C0 26.6369 4.31548 32.4405 10.8631 32.4405C16.8155 32.4405 21.131 28.125 21.131 22.1726C21.131 17.1131 17.2619 13.3929 12.3512 13.0952C14.7321 10.7143 17.7083 9.37501 20.9821 8.63096V0ZM49.8512 0C40.1786 2.08334 28.869 9.52382 28.869 20.3869C28.869 26.6369 33.1845 32.4405 39.7321 32.4405C45.6845 32.4405 50 28.125 50 22.1726C50 17.1131 46.131 13.3929 41.2202 13.0952C43.6012 10.7143 46.5774 9.37501 49.8512 8.63096V0Z" fill="#DDDDDD"/>
</svg>
