<svg width="50" height="33" viewBox="0 0 50 33" fill="none" xmlns="http://www.w3.org/2000/svg">
<path d="M29.0179 0C38.6905 2.08334 50 9.52382 50 20.3869C50 26.6369 45.6845 32.4405 39.1369 32.4405C33.1845 32.4405 28.869 28.125 28.869 22.1726C28.869 17.1131 32.7381 13.3929 37.6488 13.0952C35.2679 10.7143 32.2917 9.37501 29.0179 8.63096V0ZM0.148808 0C9.82143 2.08334 21.131 9.52382 21.131 20.3869C21.131 26.6369 16.8155 32.4405 10.2679 32.4405C4.31548 32.4405 0 28.125 0 22.1726C0 17.1131 3.86905 13.3929 8.77976 13.0952C6.39881 10.7143 3.42262 9.37501 0.148808 8.63096V0Z" fill="#DDDDDD"/>
</svg>
